{
  "accessors": [
    {
      "bufferView": 2,
      "componentType": 5126,
      "count": 65532,
      "max": [
        1.567899227142334,
        0.9751683473587036,
        1.5590670108795166
      ],
      "min": [
        -1.5271103382110596,
        -0.1518694907426834,
        -1.5037245750427246
      ],
      "type": "VEC3"
    },
    {
      "bufferView": 2,
      "byteOffset": 786384,
      "componentType": 5126,
      "count": 65532,
      "max": [
        0.9999251365661621,
        0.999998927116394,
        0.9999225735664368
      ],
      "min": [
        -0.9999781847000122,
        -0.9988176822662354,
        -0.9999255537986755
      ],
      "type": "VEC3"
    },
    {
      "bufferView": 1,
      "componentType": 5126,
      "count": 65532,
      "max": [
        0.997937023639679,
        0.8608094453811646
      ],
      "min": [
        0.0020710830576717854,
        0.003382265567779541
      ],
      "type": "VEC2"
    },
    {
      "bufferView": 1,
      "byteOffset": 524256,
      "componentType": 5126,
      "count": 65532,
      "max": [
        0.997937023639679,
        0.8608094453811646
      ],
      "min": [
        0.0020710830576717854,
        0.003382265567779541
      ],
      "type": "VEC2"
    },
    {
      "bufferView": 1,
      "byteOffset": 1048512,
      "componentType": 5126,
      "count": 65532,
      "max": [
        0.997937023639679,
        0.8608094453811646
      ],
      "min": [
        0.0020710830576717854,
        0.003382265567779541
      ],
      "type": "VEC2"
    },
    {
      "bufferView": 1,
      "byteOffset": 1572768,
      "componentType": 5126,
      "count": 65532,
      "max": [
        0.997937023639679,
        0.8608094453811646
      ],
      "min": [
        0.0020710830576717854,
        0.003382265567779541
      ],
      "type": "VEC2"
    },
    {
      "bufferView": 1,
      "byteOffset": 2097024,
      "componentType": 5126,
      "count": 65532,
      "max": [
        0.997937023639679,
        0.8608094453811646
      ],
      "min": [
        0.0020710830576717854,
        0.003382265567779541
      ],
      "type": "VEC2"
    },
    {
      "bufferView": 1,
      "byteOffset": 2621280,
      "componentType": 5126,
      "count": 65532,
      "max": [
        0.997937023639679,
        0.8608094453811646
      ],
      "min": [
        0.0020710830576717854,
        0.003382265567779541
      ],
      "type": "VEC2"
    },
    {
      "bufferView": 1,
      "byteOffset": 3145536,
      "componentType": 5126,
      "count": 65532,
      "max": [
        0.997937023639679,
        0.8608094453811646
      ],
      "min": [
        0.0020710830576717854,
        0.003382265567779541
      ],
      "type": "VEC2"
    },
    {
      "bufferView": 1,
      "byteOffset": 3669792,
      "componentType": 5126,
      "count": 65532,
      "max": [
        0.997937023639679,
        0.8608094453811646
      ],
      "min": [
        0.0020710830576717854,
        0.003382265567779541
      ],
      "type": "VEC2"
    },
    {
      "bufferView": 1,
      "byteOffset": 4194048,
      "componentType": 5126,
      "count": 65532,
      "max": [
        0.997937023639679,
        0.8608094453811646
      ],
      "min": [
        0.0020710830576717854,
        0.003382265567779541
      ],
      "type": "VEC2"
    },
    {
      "bufferView": 1,
      "byteOffset": 4718304,
      "componentType": 5126,
      "count": 65532,
      "max": [
        0.997937023639679,
        0.8608094453811646
      ],
      "min": [
        0.0020710830576717854,
        0.003382265567779541
      ],
      "type": "VEC2"
    },
    {
      "bufferView": 0,
      "componentType": 5125,
      "count": 327306,
      "type": "SCALAR"
    },
    {
      "bufferView": 2,
      "byteOffset": 1572768,
      "componentType": 5126,
      "count": 65532,
      "max": [
        1.3731145858764648,
        0.8550372123718262,
        1.590032696723938
      ],
      "min": [
        -1.3139045238494873,
        -0.11014184355735779,
        -1.5467815399169922
      ],
      "type": "VEC3"
    },
    {
      "bufferView": 2,
      "byteOffset": 2359152,
      "componentType": 5126,
      "count": 65532,
      "max": [
        0.9999231696128845,
        0.999998927116394,
        0.9998744130134583
      ],
      "min": [
        -0.9991828799247742,
        -0.9973292946815491,
        -0.9998480677604675
      ],
      "type": "VEC3"
    },
    {
      "bufferView": 1,
      "byteOffset": 5242560,
      "componentType": 5126,
      "count": 65532,
      "max": [
        0.9970132112503052,
        0.9978674054145813
      ],
      "min": [
        0.0020915146451443434,
        0.2263326644897461
      ],
      "type": "VEC2"
    },
    {
      "bufferView": 1,
      "byteOffset": 5766816,
      "componentType": 5126,
      "count": 65532,
      "max": [
        0.9970132112503052,
        0.9978674054145813
      ],
      "min": [
        0.0020915146451443434,
        0.2263326644897461
      ],
      "type": "VEC2"
    },
    {
      "bufferView": 1,
      "byteOffset": 6291072,
      "componentType": 5126,
      "count": 65532,
      "max": [
        0.9970132112503052,
        0.9978674054145813
      ],
      "min": [
        0.0020915146451443434,
        0.2263326644897461
      ],
      "type": "VEC2"
    },
    {
      "bufferView": 1,
      "byteOffset": 6815328,
      "componentType": 5126,
      "count": 65532,
      "max": [
        0.9970132112503052,
        0.9978674054145813
      ],
      "min": [
        0.0020915146451443434,
        0.2263326644897461
      ],
      "type": "VEC2"
    },
    {
      "bufferView": 1,
      "byteOffset": 7339584,
      "componentType": 5126,
      "count": 65532,
      "max": [
        0.9970132112503052,
        0.9978674054145813
      ],
      "min": [
        0.0020915146451443434,
        0.2263326644897461
      ],
      "type": "VEC2"
    },
    {
      "bufferView": 1,
      "byteOffset": 7863840,
      "componentType": 5126,
      "count": 65532,
      "max": [
        0.9970132112503052,
        0.9978674054145813
      ],
      "min": [
        0.0020915146451443434,
        0.2263326644897461
      ],
      "type": "VEC2"
    },
    {
      "bufferView": 1,
      "byteOffset": 8388096,
      "componentType": 5126,
      "count": 65532,
      "max": [
        0.9970132112503052,
        0.9978674054145813
      ],
      "min": [
        0.0020915146451443434,
        0.2263326644897461
      ],
      "type": "VEC2"
    },
    {
      "bufferView": 1,
      "byteOffset": 8912352,
      "componentType": 5126,
      "count": 65532,
      "max": [
        0.9970132112503052,
        0.9978674054145813
      ],
      "min": [
        0.0020915146451443434,
        0.2263326644897461
      ],
      "type": "VEC2"
    },
    {
      "bufferView": 1,
      "byteOffset": 9436608,
      "componentType": 5126,
      "count": 65532,
      "max": [
        0.9970132112503052,
        0.9978674054145813
      ],
      "min": [
        0.0020915146451443434,
        0.2263326644897461
      ],
      "type": "VEC2"
    },
    {
      "bufferView": 1,
      "byteOffset": 9960864,
      "componentType": 5126,
      "count": 65532,
      "max": [
        0.9970132112503052,
        0.9978674054145813
      ],
      "min": [
        0.0020915146451443434,
        0.2263326644897461
      ],
      "type": "VEC2"
    },
    {
      "bufferView": 0,
      "byteOffset": 1309224,
      "componentType": 5125,
      "count": 363912,
      "type": "SCALAR"
    },
    {
      "bufferView": 2,
      "byteOffset": 3145536,
      "componentType": 5126,
      "count": 65532,
      "max": [
        1.4313730001449585,
        0.7793787717819214,
        1.5887372493743896
      ],
      "min": [
        -1.5679001808166504,
        -0.11955380439758301,
        -1.5901304483413696
      ],
      "type": "VEC3"
    },
    {
      "bufferView": 2,
      "byteOffset": 3931920,
      "componentType": 5126,
      "count": 65532,
      "max": [
        0.9999262690544128,
        0.999999463558197,
        0.9999169707298279
      ],
      "min": [
        -0.9998692274093628,
        -0.9135087132453918,
        -0.999880313873291
      ],
      "type": "VEC3"
    },
    {
      "bufferView": 1,
      "byteOffset": 10485120,
      "componentType": 5126,
      "count": 65532,
      "max": [
        0.9550954699516296,
        0.8349307775497437
      ],
      "min": [
        0.0021143662743270397,
        0.2735985517501831
      ],
      "type": "VEC2"
    },
    {
      "bufferView": 1,
      "byteOffset": 11009376,
      "componentType": 5126,
      "count": 65532,
      "max": [
        0.9550954699516296,
        0.8349307775497437
      ],
      "min": [
        0.0021143662743270397,
        0.2735985517501831
      ],
      "type": "VEC2"
    },
    {
      "bufferView": 1,
      "byteOffset": 11533632,
      "componentType": 5126,
      "count": 65532,
      "max": [
        0.9550954699516296,
        0.8349307775497437
      ],
      "min": [
        0.0021143662743270397,
        0.2735985517501831
      ],
      "type": "VEC2"
    },
    {
      "bufferView": 1,
      "byteOffset": 12057888,
      "componentType": 5126,
      "count": 65532,
      "max": [
        0.9550954699516296,
        0.8349307775497437
      ],
      "min": [
        0.0021143662743270397,
        0.2735985517501831
      ],
      "type": "VEC2"
    },
    {
      "bufferView": 1,
      "byteOffset": 12582144,
      "componentType": 5126,
      "count": 65532,
      "max": [
        0.9550954699516296,
        0.8349307775497437
      ],
      "min": [
        0.0021143662743270397,
        0.2735985517501831
      ],
      "type": "VEC2"
    },
    {
      "bufferView": 1,
      "byteOffset": 13106400,
      "componentType": 5126,
      "count": 65532,
      "max": [
        0.9550954699516296,
        0.8349307775497437
      ],
      "min": [
        0.0021143662743270397,
        0.2735985517501831
      ],
      "type": "VEC2"
    },
    {
      "bufferView": 1,
      "byteOffset": 13630656,
      "componentType": 5126,
      "count": 65532,
      "max": [
        0.9550954699516296,
        0.8349307775497437
      ],
      "min": [
        0.0021143662743270397,
        0.2735985517501831
      ],
      "type": "VEC2"
    },
    {
      "bufferView": 1,
      "byteOffset": 14154912,
      "componentType": 5126,
      "count": 65532,
      "max": [
        0.9550954699516296,
        0.8349307775497437
      ],
      "min": [
        0.0021143662743270397,
        0.2735985517501831
      ],
      "type": "VEC2"
    },
    {
      "bufferView": 1,
      "byteOffset": 14679168,
      "componentType": 5126,
      "count": 65532,
      "max": [
        0.9550954699516296,
        0.8349307775497437
      ],
      "min": [
        0.0021143662743270397,
        0.2735985517501831
      ],
      "type": "VEC2"
    },
    {
      "bufferView": 1,
      "byteOffset": 15203424,
      "componentType": 5126,
      "count": 65532,
      "max": [
        0.9550954699516296,
        0.8349307775497437
      ],
      "min": [
        0.0021143662743270397,
        0.2735985517501831
      ],
      "type": "VEC2"
    },
    {
      "bufferView": 0,
      "byteOffset": 2764872,
      "componentType": 5125,
      "count": 356940,
      "type": "SCALAR"
    },
    {
      "bufferView": 2,
      "byteOffset": 4718304,
      "componentType": 5126,
      "count": 10170,
      "max": [
        1.5160071849822998,
        0.820850670337677,
        0.442657470703125
      ],
      "min": [
        -1.3168745040893555,
        0.038442302495241165,
        -1.2916357517242432
      ],
      "type": "VEC3"
    },
    {
      "bufferView": 2,
      "byteOffset": 4840344,
      "componentType": 5126,
      "count": 10170,
      "max": [
        0.9998064637184143,
        0.9998536705970764,
        0.9941033124923706
      ],
      "min": [
        -0.8789486885070801,
        -0.9500700831413269,
        -0.9990172982215881
      ],
      "type": "VEC3"
    },
    {
      "bufferView": 1,
      "byteOffset": 15727680,
      "componentType": 5126,
      "count": 10170,
      "max": [
        0.9092307686805725,
        0.4823261499404907
      ],
      "min": [
        0.0021392323542386293,
        0.207394540309906
      ],
      "type": "VEC2"
    },
    {
      "bufferView": 1,
      "byteOffset": 15809040,
      "componentType": 5126,
      "count": 10170,
      "max": [
        0.9092307686805725,
        0.4823261499404907
      ],
      "min": [
        0.0021392323542386293,
        0.207394540309906
      ],
      "type": "VEC2"
    },
    {
      "bufferView": 1,
      "byteOffset": 15890400,
      "componentType": 5126,
      "count": 10170,
      "max": [
        0.9092307686805725,
        0.4823261499404907
      ],
      "min": [
        0.0021392323542386293,
        0.207394540309906
      ],
      "type": "VEC2"
    },
    {
      "bufferView": 1,
      "byteOffset": 15971760,
      "componentType": 5126,
      "count": 10170,
      "max": [
        0.9092307686805725,
        0.4823261499404907
      ],
      "min": [
        0.0021392323542386293,
        0.207394540309906
      ],
      "type": "VEC2"
    },
    {
      "bufferView": 1,
      "byteOffset": 16053120,
      "componentType": 5126,
      "count": 10170,
      "max": [
        0.9092307686805725,
        0.4823261499404907
      ],
      "min": [
        0.0021392323542386293,
        0.207394540309906
      ],
      "type": "VEC2"
    },
    {
      "bufferView": 1,
      "byteOffset": 16134480,
      "componentType": 5126,
      "count": 10170,
      "max": [
        0.9092307686805725,
        0.4823261499404907
      ],
      "min": [
        0.0021392323542386293,
        0.207394540309906
      ],
      "type": "VEC2"
    },
    {
      "bufferView": 1,
      "byteOffset": 16215840,
      "componentType": 5126,
      "count": 10170,
      "max": [
        0.9092307686805725,
        0.4823261499404907
      ],
      "min": [
        0.0021392323542386293,
        0.207394540309906
      ],
      "type": "VEC2"
    },
    {
      "bufferView": 1,
      "byteOffset": 16297200,
      "componentType": 5126,
      "count": 10170,
      "max": [
        0.9092307686805725,
        0.4823261499404907
      ],
      "min": [
        0.0021392323542386293,
        0.207394540309906
      ],
      "type": "VEC2"
    },
    {
      "bufferView": 1,
      "byteOffset": 16378560,
      "componentType": 5126,
      "count": 10170,
      "max": [
        0.9092307686805725,
        0.4823261499404907
      ],
      "min": [
        0.0021392323542386293,
        0.207394540309906
      ],
      "type": "VEC2"
    },
    {
      "bufferView": 1,
      "byteOffset": 16459920,
      "componentType": 5126,
      "count": 10170,
      "max": [
        0.9092307686805725,
        0.4823261499404907
      ],
      "min": [
        0.0021392323542386293,
        0.207394540309906
      ],
      "type": "VEC2"
    },
    {
      "bufferView": 0,
      "byteOffset": 4192632,
      "componentType": 5125,
      "count": 54168,
      "type": "SCALAR"
    }
  ],
  "asset": {
    "extras": {
      "author": "JFN (https://sketchfab.com/db4)",
      "license": "CC-BY-4.0 (http://creativecommons.org/licenses/by/4.0/)",
      "source": "https://sketchfab.com/3d-models/cabo-da-roca-dirt-roots-scaniverse-af9ade46c5554d089b0fa9e2e8f0e908",
      "title": "Cabo Da Roca Dirt & Roots (Scaniverse)"
    },
    "generator": "Sketchfab-15.49.0",
    "version": "2.0"
  },
  "bufferViews": [
    {
      "buffer": 0,
      "byteLength": 4409304,
      "name": "floatBufferViews",
      "target": 34963
    },
    {
      "buffer": 0,
      "byteLength": 16541280,
      "byteOffset": 4409304,
      "byteStride": 8,
      "name": "floatBufferViews",
      "target": 34962
    },
    {
      "buffer": 0,
      "byteLength": 4962384,
      "byteOffset": 20950584,
      "byteStride": 12,
      "name": "floatBufferViews",
      "target": 34962
    }
  ],
  "buffers": [
    {
      "byteLength": 25912968,
      "uri": "scene.bin"
    }
  ],
  "extensionsUsed": [
    "KHR_materials_unlit"
  ],
  "images": [
    {
      "uri": "textures/main_baseColor.jpeg"
    }
  ],
  "materials": [
    {
      "doubleSided": true,
      "extensions": {
        "KHR_materials_unlit": {}
      },
      "name": "main",
      "pbrMetallicRoughness": {
        "baseColorTexture": {
          "index": 0
        },
        "metallicFactor": 0.0
      }
    }
  ],
  "meshes": [
    {
      "name": "mesh_main_0",
      "primitives": [
        {
          "attributes": {
            "NORMAL": 1,
            "POSITION": 0,
            "TEXCOORD_0": 2,
            "TEXCOORD_1": 3,
            "TEXCOORD_2": 4,
            "TEXCOORD_3": 5,
            "TEXCOORD_4": 6,
            "TEXCOORD_5": 7,
            "TEXCOORD_6": 8,
            "TEXCOORD_7": 9,
            "TEXCOORD_8": 10,
            "TEXCOORD_9": 11
          },
          "indices": 12,
          "material": 0,
          "mode": 4
        }
      ]
    },
    {
      "name": "mesh_main_0",
      "primitives": [
        {
          "attributes": {
            "NORMAL": 14,
            "POSITION": 13,
            "TEXCOORD_0": 15,
            "TEXCOORD_1": 16,
            "TEXCOORD_2": 17,
            "TEXCOORD_3": 18,
            "TEXCOORD_4": 19,
            "TEXCOORD_5": 20,
            "TEXCOORD_6": 21,
            "TEXCOORD_7": 22,
            "TEXCOORD_8": 23,
            "TEXCOORD_9": 24
          },
          "indices": 25,
          "material": 0,
          "mode": 4
        }
      ]
    },
    {
      "name": "mesh_main_0",
      "primitives": [
        {
          "attributes": {
            "NORMAL": 27,
            "POSITION": 26,
            "TEXCOORD_0": 28,
            "TEXCOORD_1": 29,
            "TEXCOORD_2": 30,
            "TEXCOORD_3": 31,
            "TEXCOORD_4": 32,
            "TEXCOORD_5": 33,
            "TEXCOORD_6": 34,
            "TEXCOORD_7": 35,
            "TEXCOORD_8": 36,
            "TEXCOORD_9": 37
          },
          "indices": 38,
          "material": 0,
          "mode": 4
        }
      ]
    },
    {
      "name": "mesh_main_0",
      "primitives": [
        {
          "attributes": {
            "NORMAL": 40,
            "POSITION": 39,
            "TEXCOORD_0": 41,
            "TEXCOORD_1": 42,
            "TEXCOORD_2": 43,
            "TEXCOORD_3": 44,
            "TEXCOORD_4": 45,
            "TEXCOORD_5": 46,
            "TEXCOORD_6": 47,
            "TEXCOORD_7": 48,
            "TEXCOORD_8": 49,
            "TEXCOORD_9": 50
          },
          "indices": 51,
          "material": 0,
          "mode": 4
        }
      ]
    }
  ],
  "nodes": [
    {
      "children": [
        1
      ],
      "matrix": [
        1.0,
        0.0,
        0.0,
        0.0,
        0.0,
        2.220446049250313e-16,
        -1.0,
        0.0,
        0.0,
        1.0,
        2.220446049250313e-16,
        0.0,
        0.0,
        0.0,
        0.0,
        1.0
      ],
      "name": "Sketchfab_model"
    },
    {
      "children": [
        2
      ],
      "matrix": [
        1.0,
        0.0,
        0.0,
        0.0,
        0.0,
        0.0,
        1.0,
        0.0,
        0.0,
        -1.0,
        0.0,
        0.0,
        0.0,
        0.0,
        0.0,
        1.0
      ],
      "name": "78aec6b0a0564e45835964997a948f99.fbx"
    },
    {
      "children": [
        3
      ],
      "name": "RootNode"
    },
    {
      "children": [
        4,
        5,
        6,
        7
      ],
      "name": "mesh"
    },
    {
      "mesh": 0,
      "name": "mesh_main_0"
    },
    {
      "mesh": 1,
      "name": "mesh_main_0"
    },
    {
      "mesh": 2,
      "name": "mesh_main_0"
    },
    {
      "mesh": 3,
      "name": "mesh_main_0"
    }
  ],
  "samplers": [
    {
      "magFilter": 9729,
      "minFilter": 9987,
      "wrapS": 10497,
      "wrapT": 10497
    }
  ],
  "scene": 0,
  "scenes": [
    {
      "name": "Sketchfab_Scene",
      "nodes": [
        0
      ]
    }
  ],
  "textures": [
    {
      "sampler": 0,
      "source": 0
    }
  ]
}
