{
  "accessors": [
    {
      "bufferView": 2,
      "componentType": 5126,
      "count": 1014,
      "max": [
        1.0,
        0.5098170042037964,
        0.0973196029663086
      ],
      "min": [
        -1.0,
        -0.5098170042037964,
        -0.0973196029663086
      ],
      "type": "VEC3"
    },
    {
      "bufferView": 2,
      "byteOffset": 12168,
      "componentType": 5126,
      "count": 1014,
      "max": [
        0.979342520236969,
        1.0,
        1.0
      ],
      "min": [
        -0.979342520236969,
        -1.0,
        -1.0
      ],
      "type": "VEC3"
    },
    {
      "bufferView": 3,
      "componentType": 5126,
      "count": 1014,
      "max": [
        1.0,
        0.8726580142974854,
        1.0,
        1.0
      ],
      "min": [
        -0.7960010170936584,
        -0.8726140260696411,
        -0.9293090105056763,
        -1.0
      ],
      "type": "VEC4"
    },
    {
      "bufferView": 1,
      "componentType": 5126,
      "count": 1014,
      "max": [
        0.9222999811172485,
        0.9332000017166138
      ],
      "min": [
        0.08810000121593475,
        0.07259999960660934
      ],
      "type": "VEC2"
    },
    {
      "bufferView": 0,
      "componentType": 5125,
      "count": 4536,
      "type": "SCALAR"
    }
  ],
  "asset": {
    "extras": {
      "author": "Vicxtream (https://sketchfab.com/durandv90)",
      "license": "CC-BY-4.0 (http://creativecommons.org/licenses/by/4.0/)",
      "source": "https://sketchfab.com/3d-models/televisor-modelo-0925c1580d59481ea4da5998f36c8135",
      "title": "televisor modelo"
    },
    "generator": "Sketchfab-12.67.0",
    "version": "2.0"
  },
  "bufferViews": [
    {
      "buffer": 0,
      "byteLength": 18144,
      "name": "floatBufferViews",
      "target": 34963
    },
    {
      "buffer": 0,
      "byteLength": 8112,
      "byteOffset": 18144,
      "byteStride": 8,
      "name": "floatBufferViews",
      "target": 34962
    },
    {
      "buffer": 0,
      "byteLength": 24336,
      "byteOffset": 26256,
      "byteStride": 12,
      "name": "floatBufferViews",
      "target": 34962
    },
    {
      "buffer": 0,
      "byteLength": 16224,
      "byteOffset": 50592,
      "byteStride": 16,
      "name": "floatBufferViews",
      "target": 34962
    }
  ],
  "buffers": [
    {
      "byteLength": 66816,
      "uri": "scene.bin"
    }
  ],
  "images": [
    {
      "uri": "textures/televisor_mat_baseColor.jpeg"
    },
    {
      "uri": "textures/televisor_mat_metallicRoughness.png"
    },
    {
      "uri": "textures/televisor_mat_normal.jpeg"
    }
  ],
  "materials": [
    {
      "doubleSided": true,
      "name": "televisor_mat",
      "normalTexture": {
        "index": 2
      },
      "occlusionTexture": {
        "index": 1
      },
      "pbrMetallicRoughness": {
        "baseColorTexture": {
          "index": 0
        },
        "metallicRoughnessTexture": {
          "index": 1
        }
      }
    }
  ],
  "meshes": [
    {
      "name": "defaultMaterial",
      "primitives": [
        {
          "attributes": {
            "NORMAL": 1,
            "POSITION": 0,
            "TANGENT": 2,
            "TEXCOORD_0": 3
          },
          "indices": 4,
          "material": 0,
          "mode": 4
        }
      ]
    }
  ],
  "nodes": [
    {
      "children": [
        1
      ],
      "matrix": [
        1.0,
        0.0,
        0.0,
        0.0,
        0.0,
        2.220446049250313e-16,
        -1.0,
        0.0,
        0.0,
        1.0,
        2.220446049250313e-16,
        0.0,
        0.0,
        0.0,
        0.0,
        1.0
      ],
      "name": "Sketchfab_model"
    },
    {
      "children": [
        2
      ],
      "matrix": [
        1.0,
        0.0,
        0.0,
        0.0,
        0.0,
        -4.371139006309477e-08,
        0.999999999999999,
        0.0,
        0.0,
        -0.999999999999999,
        -4.371139006309477e-08,
        0.0,
        0.0,
        0.0,
        0.0,
        1.0
      ],
      "name": "Collada visual scene group"
    },
    {
      "children": [
        3
      ],
      "name": "g"
    },
    {
      "mesh": 0,
      "name": "defaultMaterial"
    }
  ],
  "samplers": [
    {
      "magFilter": 9729,
      "minFilter": 9987,
      "wrapS": 10497,
      "wrapT": 10497
    }
  ],
  "scene": 0,
  "scenes": [
    {
      "name": "Sketchfab_Scene",
      "nodes": [
        0
      ]
    }
  ],
  "textures": [
    {
      "sampler": 0,
      "source": 0
    },
    {
      "sampler": 0,
      "source": 1
    },
    {
      "sampler": 0,
      "source": 2
    }
  ]
}
