{
  "accessors": [
    {
      "bufferView": 2,
      "componentType": 5126,
      "count": 29,
      "max": [
        0.9401978254318237,
        0.9710608124732971,
        1.118906021118164
      ],
      "min": [
        -1.0598020553588867,
        -1.0704489946365356,
        -0.604514479637146
      ],
      "type": "VEC3"
    },
    {
      "bufferView": 2,
      "byteOffset": 348,
      "componentType": 5126,
      "count": 29,
      "max": [
        1.0,
        1.0,
        0.9765865802764893
      ],
      "min": [
        -0.9511352181434631,
        -0.9935182929039001,
        -1.0
      ],
      "type": "VEC3"
    },
    {
      "bufferView": 1,
      "componentType": 5126,
      "count": 29,
      "max": [
        0.9998478889465332,
        0.9742410778999329
      ],
      "min": [
        0.0001520140067441389,
        0.0001520140067441389
      ],
      "type": "VEC2"
    },
    {
      "bufferView": 0,
      "componentType": 5125,
      "count": 72,
      "type": "SCALAR"
    },
    {
      "bufferView": 2,
      "byteOffset": 696,
      "componentType": 5126,
      "count": 18,
      "max": [
        1.6414070129394531,
        1.0008200407028198,
        0.8182014226913452
      ],
      "min": [
        -0.9196559190750122,
        -1.2751630544662476,
        -0.3853253126144409
      ],
      "type": "VEC3"
    },
    {
      "bufferView": 2,
      "byteOffset": 912,
      "componentType": 5126,
      "count": 18,
      "max": [
        0.539659321308136,
        0.8657222986221313,
        0.8408690094947815
      ],
      "min": [
        -0.9063715934753418,
        -0.7995635867118835,
        -0.998710572719574
      ],
      "type": "VEC3"
    },
    {
      "bufferView": 1,
      "byteOffset": 232,
      "componentType": 5126,
      "count": 18,
      "max": [
        0.8505706191062927,
        0.9145532846450806
      ],
      "min": [
        0.11849839985370636,
        -0.013066880404949188
      ],
      "type": "VEC2"
    },
    {
      "bufferView": 0,
      "byteOffset": 288,
      "componentType": 5125,
      "count": 24,
      "type": "SCALAR"
    },
    {
      "bufferView": 2,
      "byteOffset": 1128,
      "componentType": 5126,
      "count": 15,
      "max": [
        1.013949990272522,
        1.0271379947662354,
        0.7711983919143677
      ],
      "min": [
        -0.986050009727478,
        -0.9728624224662781,
        -0.284954309463501
      ],
      "type": "VEC3"
    },
    {
      "bufferView": 2,
      "byteOffset": 1308,
      "componentType": 5126,
      "count": 15,
      "max": [
        0.8413465023040771,
        0.8242605924606323,
        0.8753668069839478
      ],
      "min": [
        -0.87191241979599,
        -0.8756504058837891,
        -1.0
      ],
      "type": "VEC3"
    },
    {
      "bufferView": 1,
      "byteOffset": 376,
      "componentType": 5126,
      "count": 15,
      "max": [
        0.9998999238014221,
        0.5729138255119324
      ],
      "min": [
        0.00010014099825639278,
        0.00010014099825639278
      ],
      "type": "VEC2"
    },
    {
      "bufferView": 0,
      "byteOffset": 384,
      "componentType": 5125,
      "count": 36,
      "type": "SCALAR"
    },
    {
      "bufferView": 2,
      "byteOffset": 1488,
      "componentType": 5126,
      "count": 30,
      "max": [
        0.9870914816856384,
        0.9786552786827087,
        1.1330759525299072
      ],
      "min": [
        -1.0129090547561646,
        -1.0213450193405151,
        -0.5042496919631958
      ],
      "type": "VEC3"
    },
    {
      "bufferView": 2,
      "byteOffset": 1848,
      "componentType": 5126,
      "count": 30,
      "max": [
        0.9727216958999634,
        0.9572305083274841,
        0.9811304807662964
      ],
      "min": [
        -0.9544453620910645,
        -0.9565727114677429,
        -1.0
      ],
      "type": "VEC3"
    },
    {
      "bufferView": 1,
      "byteOffset": 496,
      "componentType": 5126,
      "count": 30,
      "max": [
        0.7813813090324402,
        0.999861478805542
      ],
      "min": [
        0.0001386340009048581,
        0.0001386340009048581
      ],
      "type": "VEC2"
    },
    {
      "bufferView": 0,
      "byteOffset": 528,
      "componentType": 5125,
      "count": 72,
      "type": "SCALAR"
    },
    {
      "bufferView": 2,
      "byteOffset": 2208,
      "componentType": 5126,
      "count": 37,
      "max": [
        3.288867950439453,
        3.517833948135376,
        1.6538139581680298
      ],
      "min": [
        -2.8592851161956787,
        -2.9182488918304443,
        -1.209617018699646
      ],
      "type": "VEC3"
    },
    {
      "bufferView": 2,
      "byteOffset": 2652,
      "componentType": 5126,
      "count": 37,
      "max": [
        0.9997075200080872,
        0.6711968779563904,
        0.9648732542991638
      ],
      "min": [
        -0.8387854099273682,
        -0.8626867532730103,
        -0.9992950558662415
      ],
      "type": "VEC3"
    },
    {
      "bufferView": 1,
      "byteOffset": 736,
      "componentType": 5126,
      "count": 37,
      "max": [
        0.9998645782470703,
        0.7104715704917908
      ],
      "min": [
        0.00013538499479182065,
        0.00013538499479182065
      ],
      "type": "VEC2"
    },
    {
      "bufferView": 0,
      "byteOffset": 816,
      "componentType": 5125,
      "count": 108,
      "type": "SCALAR"
    },
    {
      "bufferView": 2,
      "byteOffset": 3096,
      "componentType": 5126,
      "count": 52,
      "max": [
        2.0290489196777344,
        2.148888111114502,
        1.3619270324707031
      ],
      "min": [
        -1.8487399816513062,
        -1.8235169649124146,
        -0.683413028717041
      ],
      "type": "VEC3"
    },
    {
      "bufferView": 2,
      "byteOffset": 3720,
      "componentType": 5126,
      "count": 52,
      "max": [
        0.9988887906074524,
        0.8710554242134094,
        0.9537215828895569
      ],
      "min": [
        -0.8157939910888672,
        -0.9966515898704529,
        -0.9984048008918762
      ],
      "type": "VEC3"
    },
    {
      "bufferView": 1,
      "byteOffset": 1032,
      "componentType": 5126,
      "count": 52,
      "max": [
        0.9998548030853271,
        0.853882372379303
      ],
      "min": [
        0.00014535299851559103,
        0.00014535299851559103
      ],
      "type": "VEC2"
    },
    {
      "bufferView": 0,
      "byteOffset": 1248,
      "componentType": 5125,
      "count": 156,
      "type": "SCALAR"
    },
    {
      "bufferView": 2,
      "byteOffset": 4344,
      "componentType": 5126,
      "count": 77,
      "max": [
        2.244683027267456,
        2.317173957824707,
        1.7188160419464111
      ],
      "min": [
        -1.9015729427337646,
        -2.035299062728882,
        -1.2842789888381958
      ],
      "type": "VEC3"
    },
    {
      "bufferView": 2,
      "byteOffset": 5268,
      "componentType": 5126,
      "count": 77,
      "max": [
        0.9968674182891846,
        0.9941421747207642,
        0.9915174245834351
      ],
      "min": [
        -0.988615095615387,
        -0.979038417339325,
        -0.9998313784599304
      ],
      "type": "VEC3"
    },
    {
      "bufferView": 1,
      "byteOffset": 1448,
      "componentType": 5126,
      "count": 77,
      "max": [
        0.5623496770858765,
        0.9998915791511536
      ],
      "min": [
        0.00010831899999175221,
        0.00010831899999175221
      ],
      "type": "VEC2"
    },
    {
      "bufferView": 0,
      "byteOffset": 1872,
      "componentType": 5125,
      "count": 288,
      "type": "SCALAR"
    },
    {
      "bufferView": 2,
      "byteOffset": 6192,
      "componentType": 5126,
      "count": 20,
      "max": [
        0.9510564804077148,
        0.9999998807907104,
        0.5924671292304993
      ],
      "min": [
        -0.9510564804077148,
        -0.8090171813964844,
        -0.3060666024684906
      ],
      "type": "VEC3"
    },
    {
      "bufferView": 2,
      "byteOffset": 6432,
      "componentType": 5126,
      "count": 20,
      "max": [
        0.8760585784912109,
        0.9211424589157104,
        0.867663562297821
      ],
      "min": [
        -0.8760583996772766,
        -0.7452198266983032,
        -1.0
      ],
      "type": "VEC3"
    },
    {
      "bufferView": 1,
      "byteOffset": 2064,
      "componentType": 5126,
      "count": 20,
      "max": [
        0.999897301197052,
        0.625293493270874
      ],
      "min": [
        0.00010274999658577144,
        0.00010274999658577144
      ],
      "type": "VEC2"
    },
    {
      "bufferView": 0,
      "byteOffset": 3024,
      "componentType": 5125,
      "count": 78,
      "type": "SCALAR"
    }
  ],
  "asset": {
    "extras": {
      "author": "Elbolillo (https://sketchfab.com/Elbolilloduro)",
      "license": "CC-BY-4.0 (http://creativecommons.org/licenses/by/4.0/)",
      "source": "https://sketchfab.com/3d-models/rocas-low-poly-93fa3fbf84c4418fa58795cfe48e480f",
      "title": "Rocas Low Poly"
    },
    "generator": "Sketchfab-12.66.0",
    "version": "2.0"
  },
  "bufferViews": [
    {
      "buffer": 0,
      "byteLength": 3336,
      "name": "floatBufferViews",
      "target": 34963
    },
    {
      "buffer": 0,
      "byteLength": 2224,
      "byteOffset": 3336,
      "byteStride": 8,
      "name": "floatBufferViews",
      "target": 34962
    },
    {
      "buffer": 0,
      "byteLength": 6672,
      "byteOffset": 5560,
      "byteStride": 12,
      "name": "floatBufferViews",
      "target": 34962
    }
  ],
  "buffers": [
    {
      "byteLength": 12232,
      "uri": "scene.bin"
    }
  ],
  "images": [
    {
      "uri": "textures/Material.008_baseColor.jpeg"
    }
  ],
  "materials": [
    {
      "doubleSided": true,
      "name": "Material.008",
      "pbrMetallicRoughness": {
        "baseColorTexture": {
          "index": 0
        },
        "metallicFactor": 0.0,
        "roughnessFactor": 0.6
      }
    }
  ],
  "meshes": [
    {
      "name": "Material_008-material",
      "primitives": [
        {
          "attributes": {
            "NORMAL": 1,
            "POSITION": 0,
            "TEXCOORD_0": 2
          },
          "indices": 3,
          "material": 0,
          "mode": 4
        }
      ]
    },
    {
      "name": "Material_008-material",
      "primitives": [
        {
          "attributes": {
            "NORMAL": 5,
            "POSITION": 4,
            "TEXCOORD_0": 6
          },
          "indices": 7,
          "material": 0,
          "mode": 4
        }
      ]
    },
    {
      "name": "Material_008-material",
      "primitives": [
        {
          "attributes": {
            "NORMAL": 9,
            "POSITION": 8,
            "TEXCOORD_0": 10
          },
          "indices": 11,
          "material": 0,
          "mode": 4
        }
      ]
    },
    {
      "name": "Material_008-material",
      "primitives": [
        {
          "attributes": {
            "NORMAL": 13,
            "POSITION": 12,
            "TEXCOORD_0": 14
          },
          "indices": 15,
          "material": 0,
          "mode": 4
        }
      ]
    },
    {
      "name": "Material_008-material",
      "primitives": [
        {
          "attributes": {
            "NORMAL": 17,
            "POSITION": 16,
            "TEXCOORD_0": 18
          },
          "indices": 19,
          "material": 0,
          "mode": 4
        }
      ]
    },
    {
      "name": "Material_008-material",
      "primitives": [
        {
          "attributes": {
            "NORMAL": 21,
            "POSITION": 20,
            "TEXCOORD_0": 22
          },
          "indices": 23,
          "material": 0,
          "mode": 4
        }
      ]
    },
    {
      "name": "Material_008-material",
      "primitives": [
        {
          "attributes": {
            "NORMAL": 25,
            "POSITION": 24,
            "TEXCOORD_0": 26
          },
          "indices": 27,
          "material": 0,
          "mode": 4
        }
      ]
    },
    {
      "name": "Material_008-material",
      "primitives": [
        {
          "attributes": {
            "NORMAL": 29,
            "POSITION": 28,
            "TEXCOORD_0": 30
          },
          "indices": 31,
          "material": 0,
          "mode": 4
        }
      ]
    }
  ],
  "nodes": [
    {
      "children": [
        1
      ],
      "matrix": [
        1.0,
        0.0,
        0.0,
        0.0,
        0.0,
        2.220446049250313e-16,
        -1.0,
        0.0,
        0.0,
        1.0,
        2.220446049250313e-16,
        0.0,
        0.0,
        0.0,
        0.0,
        1.0
      ],
      "name": "Sketchfab_model"
    },
    {
      "children": [
        2,
        4,
        6,
        8,
        10,
        12,
        14,
        16
      ],
      "name": "Collada visual scene group"
    },
    {
      "children": [
        3
      ],
      "matrix": [
        2.768967,
        0.0,
        0.0,
        0.0,
        0.0,
        2.768967,
        0.0,
        0.0,
        0.0,
        0.0,
        2.768967,
        0.0,
        -20.37041,
        19.28434,
        -2.417533,
        1.0
      ],
      "name": "Rock1"
    },
    {
      "mesh": 0,
      "name": "Material_008-material"
    },
    {
      "children": [
        5
      ],
      "matrix": [
        1.969338,
        0.0,
        0.0,
        0.0,
        0.0,
        1.969338,
        0.0,
        0.0,
        0.0,
        0.0,
        1.969338,
        0.0,
        -21.11896,
        26.53037,
        -3.497944,
        1.0
      ],
      "name": "Rock2"
    },
    {
      "mesh": 1,
      "name": "Material_008-material"
    },
    {
      "children": [
        7
      ],
      "matrix": [
        2.598059,
        0.0,
        0.0,
        0.0,
        0.0,
        2.598059,
        0.0,
        0.0,
        0.0,
        0.0,
        2.598059,
        0.0,
        -20.88738,
        33.2166,
        -3.584746,
        1.0
      ],
      "name": "Rock3"
    },
    {
      "mesh": 2,
      "name": "Material_008-material"
    },
    {
      "children": [
        9
      ],
      "matrix": [
        2.283653,
        0.0,
        0.0,
        0.0,
        0.0,
        2.283653,
        0.0,
        0.0,
        0.0,
        0.0,
        2.283653,
        0.0,
        -21.15412,
        39.71135,
        -3.072639,
        1.0
      ],
      "name": "Rock4"
    },
    {
      "mesh": 3,
      "name": "Material_008-material"
    },
    {
      "children": [
        11
      ],
      "matrix": [
        1.828803,
        0.0,
        0.0,
        0.0,
        0.0,
        1.828803,
        0.0,
        0.0,
        0.0,
        0.0,
        1.828803,
        0.0,
        -20.88738,
        48.50441,
        -2.590863,
        1.0
      ],
      "name": "Rock5"
    },
    {
      "mesh": 4,
      "name": "Material_008-material"
    },
    {
      "children": [
        13
      ],
      "matrix": [
        1.828803,
        0.0,
        0.0,
        0.0,
        0.0,
        1.828803,
        0.0,
        0.0,
        0.0,
        0.0,
        1.828803,
        0.0,
        -20.88738,
        59.67136,
        -3.223279,
        1.0
      ],
      "name": "Rock6"
    },
    {
      "mesh": 5,
      "name": "Material_008-material"
    },
    {
      "children": [
        15
      ],
      "matrix": [
        1.828803,
        0.0,
        0.0,
        0.0,
        0.0,
        1.828803,
        0.0,
        0.0,
        0.0,
        0.0,
        1.828803,
        0.0,
        -20.88738,
        69.8756,
        -2.335984,
        1.0
      ],
      "name": "Rock7"
    },
    {
      "mesh": 6,
      "name": "Material_008-material"
    },
    {
      "children": [
        17
      ],
      "matrix": [
        4.141748,
        0.0,
        0.0,
        0.0,
        0.0,
        4.141748,
        0.0,
        0.0,
        0.0,
        0.0,
        4.141748,
        0.0,
        -20.88738,
        79.265,
        -3.454922,
        1.0
      ],
      "name": "Rock8"
    },
    {
      "mesh": 7,
      "name": "Material_008-material"
    }
  ],
  "samplers": [
    {
      "magFilter": 9729,
      "minFilter": 9987,
      "wrapS": 10497,
      "wrapT": 10497
    }
  ],
  "scene": 0,
  "scenes": [
    {
      "name": "Sketchfab_Scene",
      "nodes": [
        0
      ]
    }
  ],
  "textures": [
    {
      "sampler": 0,
      "source": 0
    }
  ]
}
