{
  "accessors": [
    {
      "bufferView": 2,
      "componentType": 5126,
      "count": 65532,
      "max": [
        3.4601664543151855,
        21.89149284362793,
        11.679550170898438
      ],
      "min": [
        -38.59890365600586,
        -17.948156356811523,
        -22.224637985229492
      ],
      "type": "VEC3"
    },
    {
      "bufferView": 2,
      "byteOffset": 786384,
      "componentType": 5126,
      "count": 65532,
      "max": [
        0.9997596144676208,
        0.999439537525177,
        0.9996715784072876
      ],
      "min": [
        -0.9998055696487427,
        -0.9997878670692444,
        -0.9999518394470215
      ],
      "type": "VEC3"
    },
    {
      "bufferView": 1,
      "componentType": 5126,
      "count": 65532,
      "max": [
        0.979592502117157,
        0.9999011158943176
      ],
      "min": [
        9.895956463878974e-05,
        9.895956463878974e-05
      ],
      "type": "VEC2"
    },
    {
      "bufferView": 0,
      "componentType": 5125,
      "count": 98298,
      "type": "SCALAR"
    },
    {
      "bufferView": 2,
      "byteOffset": 1572768,
      "componentType": 5126,
      "count": 65532,
      "max": [
        7.970922946929932,
        25.288555145263672,
        9.648488998413086
      ],
      "min": [
        -37.42087936401367,
        -14.448431015014648,
        -24.574586868286133
      ],
      "type": "VEC3"
    },
    {
      "bufferView": 2,
      "byteOffset": 2359152,
      "componentType": 5126,
      "count": 65532,
      "max": [
        0.9999436140060425,
        0.9989328980445862,
        0.9993082880973816
      ],
      "min": [
        -0.9999841451644897,
        -0.9999900460243225,
        -0.9995011687278748
      ],
      "type": "VEC3"
    },
    {
      "bufferView": 1,
      "byteOffset": 524256,
      "componentType": 5126,
      "count": 65532,
      "max": [
        0.979592502117157,
        0.9999011158943176
      ],
      "min": [
        9.895956463878974e-05,
        9.895956463878974e-05
      ],
      "type": "VEC2"
    },
    {
      "bufferView": 0,
      "byteOffset": 393192,
      "componentType": 5125,
      "count": 98298,
      "type": "SCALAR"
    },
    {
      "bufferView": 2,
      "byteOffset": 3145536,
      "componentType": 5126,
      "count": 65532,
      "max": [
        8.070423126220703,
        27.01860809326172,
        13.497241973876953
      ],
      "min": [
        -37.689544677734375,
        -12.330580711364746,
        -20.595125198364258
      ],
      "type": "VEC3"
    },
    {
      "bufferView": 2,
      "byteOffset": 3931920,
      "componentType": 5126,
      "count": 65532,
      "max": [
        0.9994649887084961,
        0.9989365339279175,
        0.9995512962341309
      ],
      "min": [
        -0.9994860291481018,
        -0.9999156594276428,
        -0.9996994733810425
      ],
      "type": "VEC3"
    },
    {
      "bufferView": 1,
      "byteOffset": 1048512,
      "componentType": 5126,
      "count": 65532,
      "max": [
        0.979592502117157,
        0.9999011158943176
      ],
      "min": [
        9.895956463878974e-05,
        9.895956463878974e-05
      ],
      "type": "VEC2"
    },
    {
      "bufferView": 0,
      "byteOffset": 786384,
      "componentType": 5125,
      "count": 98298,
      "type": "SCALAR"
    },
    {
      "bufferView": 2,
      "byteOffset": 4718304,
      "componentType": 5126,
      "count": 14260,
      "max": [
        1.5064877271652222,
        25.41606330871582,
        7.974566459655762
      ],
      "min": [
        -31.319183349609375,
        -8.648694038391113,
        -21.453828811645508
      ],
      "type": "VEC3"
    },
    {
      "bufferView": 2,
      "byteOffset": 4889424,
      "componentType": 5126,
      "count": 14260,
      "max": [
        0.9962441325187683,
        0.9978706240653992,
        0.996930718421936
      ],
      "min": [
        -0.9998830556869507,
        -0.9974624514579773,
        -0.9865347146987915
      ],
      "type": "VEC3"
    },
    {
      "bufferView": 1,
      "byteOffset": 1572768,
      "componentType": 5126,
      "count": 14260,
      "max": [
        0.979592502117157,
        0.9999011158943176
      ],
      "min": [
        9.895956463878974e-05,
        9.895956463878974e-05
      ],
      "type": "VEC2"
    },
    {
      "bufferView": 0,
      "byteOffset": 1179576,
      "componentType": 5125,
      "count": 21390,
      "type": "SCALAR"
    },
    {
      "bufferView": 2,
      "byteOffset": 5060544,
      "componentType": 5126,
      "count": 60207,
      "max": [
        5.044785499572754,
        4.915392875671387,
        8.716212272644043
      ],
      "min": [
        -4.6107940673828125,
        -5.21577262878418,
        -6.428769694366565e-08
      ],
      "type": "VEC3"
    },
    {
      "bufferView": 2,
      "byteOffset": 5783028,
      "componentType": 5126,
      "count": 60207,
      "max": [
        0.9999946355819702,
        0.9999964237213135,
        0.9958032965660095
      ],
      "min": [
        -0.9999985694885254,
        -0.9999996423721313,
        -0.9949029684066772
      ],
      "type": "VEC3"
    },
    {
      "bufferView": 3,
      "componentType": 5126,
      "count": 60207,
      "max": [
        0.9999960064888,
        0.999993622303009,
        0.9999796152114868,
        -1.0
      ],
      "min": [
        -0.9999530911445618,
        -0.9999902248382568,
        -0.8064259886741638,
        -1.0
      ],
      "type": "VEC4"
    },
    {
      "bufferView": 1,
      "byteOffset": 1686848,
      "componentType": 5126,
      "count": 60207,
      "max": [
        1.0,
        1.0
      ],
      "min": [
        0.0,
        0.0
      ],
      "type": "VEC2"
    },
    {
      "bufferView": 0,
      "byteOffset": 1265136,
      "componentType": 5125,
      "count": 297216,
      "type": "SCALAR"
    }
  ],
  "asset": {
    "extras": {
      "author": "ETERsoldier (https://sketchfab.com/ETERsoldier)",
      "license": "CC-BY-4.0 (http://creativecommons.org/licenses/by/4.0/)",
      "source": "https://sketchfab.com/3d-models/arbol-tree-0547c615f8f2452cbd7e05fd62e54dfc",
      "title": "Árbol/ Tree"
    },
    "generator": "Sketchfab-12.68.0",
    "version": "2.0"
  },
  "bufferViews": [
    {
      "buffer": 0,
      "byteLength": 2454000,
      "name": "floatBufferViews",
      "target": 34963
    },
    {
      "buffer": 0,
      "byteLength": 2168504,
      "byteOffset": 2454000,
      "byteStride": 8,
      "name": "floatBufferViews",
      "target": 34962
    },
    {
      "buffer": 0,
      "byteLength": 6505512,
      "byteOffset": 4622504,
      "byteStride": 12,
      "name": "floatBufferViews",
      "target": 34962
    },
    {
      "buffer": 0,
      "byteLength": 963312,
      "byteOffset": 11128016,
      "byteStride": 16,
      "name": "floatBufferViews",
      "target": 34962
    }
  ],
  "buffers": [
    {
      "byteLength": 12091328,
      "uri": "scene.bin"
    }
  ],
  "extensionsRequired": [
    "KHR_materials_pbrSpecularGlossiness"
  ],
  "extensionsUsed": [
    "KHR_materials_pbrSpecularGlossiness"
  ],
  "images": [
    {
      "uri": "textures/Material.002_diffuse.png"
    },
    {
      "uri": "textures/Material.003_diffuse.png"
    },
    {
      "uri": "textures/Material.003_specularGlossiness.jpeg"
    },
    {
      "uri": "textures/Material.003_normal.png"
    }
  ],
  "materials": [
    {
      "alphaMode": "BLEND",
      "doubleSided": true,
      "extensions": {
        "KHR_materials_pbrSpecularGlossiness": {
          "diffuseFactor": [
            1.0,
            1.0,
            1.0,
            1.0
          ],
          "diffuseTexture": {
            "index": 0
          },
          "glossinessFactor": 0.0,
          "specularFactor": [
            0.0,
            0.0,
            0.0
          ]
        }
      },
      "name": "Material.002"
    },
    {
      "alphaMode": "BLEND",
      "doubleSided": true,
      "extensions": {
        "KHR_materials_pbrSpecularGlossiness": {
          "diffuseFactor": [
            1.0,
            1.0,
            1.0,
            1.0
          ],
          "diffuseTexture": {
            "index": 1
          },
          "glossinessFactor": 0.0748856707,
          "specularFactor": [
            0.3553734756,
            0.3553734756,
            0.3553734756
          ],
          "specularGlossinessTexture": {
            "index": 2
          }
        }
      },
      "name": "Material.003",
      "normalTexture": {
        "index": 3
      }
    }
  ],
  "meshes": [
    {
      "name": "Hojas.017_Material.002_0",
      "primitives": [
        {
          "attributes": {
            "NORMAL": 1,
            "POSITION": 0,
            "TEXCOORD_0": 2
          },
          "indices": 3,
          "material": 0,
          "mode": 4
        }
      ]
    },
    {
      "name": "Hojas.017_Material.002_0",
      "primitives": [
        {
          "attributes": {
            "NORMAL": 5,
            "POSITION": 4,
            "TEXCOORD_0": 6
          },
          "indices": 7,
          "material": 0,
          "mode": 4
        }
      ]
    },
    {
      "name": "Hojas.017_Material.002_0",
      "primitives": [
        {
          "attributes": {
            "NORMAL": 9,
            "POSITION": 8,
            "TEXCOORD_0": 10
          },
          "indices": 11,
          "material": 0,
          "mode": 4
        }
      ]
    },
    {
      "name": "Hojas.017_Material.002_0",
      "primitives": [
        {
          "attributes": {
            "NORMAL": 13,
            "POSITION": 12,
            "TEXCOORD_0": 14
          },
          "indices": 15,
          "material": 0,
          "mode": 4
        }
      ]
    },
    {
      "name": "tree_Material.003_0",
      "primitives": [
        {
          "attributes": {
            "NORMAL": 17,
            "POSITION": 16,
            "TANGENT": 18,
            "TEXCOORD_0": 19
          },
          "indices": 20,
          "material": 1,
          "mode": 4
        }
      ]
    }
  ],
  "nodes": [
    {
      "children": [
        1
      ],
      "matrix": [
        1.0,
        0.0,
        0.0,
        0.0,
        0.0,
        2.220446049250313e-16,
        -1.0,
        0.0,
        0.0,
        1.0,
        2.220446049250313e-16,
        0.0,
        0.0,
        0.0,
        0.0,
        1.0
      ],
      "name": "Sketchfab_model"
    },
    {
      "children": [
        2
      ],
      "matrix": [
        1.0,
        0.0,
        0.0,
        0.0,
        0.0,
        0.0,
        1.0,
        0.0,
        0.0,
        -1.0,
        0.0,
        0.0,
        0.0,
        0.0,
        0.0,
        1.0
      ],
      "name": "2c9e7c03e4ed42fcaae5079508fa2404.fbx"
    },
    {
      "children": [
        3,
        6,
        9,
        12,
        15,
        18,
        21,
        24,
        27,
        32,
        34
      ],
      "name": "RootNode"
    },
    {
      "children": [
        4
      ],
      "matrix": [
        9.099629265651998e-05,
        -1.1102230246251565e-14,
        -99.99999999995859,
        0.0,
        81.06221439912817,
        58.55695856774271,
        7.376360984245878e-05,
        0.0,
        58.556958567718475,
        -81.06221439916172,
        5.328466140541721e-05,
        0.0,
        709.0094604492188,
        1197.58740234375,
        -893.626220703125,
        1.0
      ],
      "name": "Sun.007"
    },
    {
      "children": [
        5
      ],
      "matrix": [
        1.0,
        0.0,
        0.0,
        0.0,
        0.0,
        2.220446049250313e-16,
        1.0,
        0.0,
        0.0,
        -1.0,
        2.220446049250313e-16,
        0.0,
        0.0,
        0.0,
        0.0,
        1.0
      ],
      "name": "Object_4"
    },
    {
      "name": "Object_5"
    },
    {
      "children": [
        7
      ],
      "matrix": [
        9.099629264541775e-05,
        5.551115123125783e-15,
        -99.99999999995862,
        0.0,
        75.02658930392245,
        -66.11362111861587,
        6.827141476595244e-05,
        0.0,
        -66.1136211185885,
        -75.0265893039535,
        -6.016094415972617e-05,
        0.0,
        709.0094604492188,
        -232.62277221679688,
        -893.626220703125,
        1.0
      ],
      "name": "Sun.006"
    },
    {
      "children": [
        8
      ],
      "matrix": [
        1.0,
        0.0,
        0.0,
        0.0,
        0.0,
        2.220446049250313e-16,
        1.0,
        0.0,
        0.0,
        -1.0,
        2.220446049250313e-16,
        0.0,
        0.0,
        0.0,
        0.0,
        1.0
      ],
      "name": "Object_7"
    },
    {
      "name": "Object_8"
    },
    {
      "children": [
        10
      ],
      "matrix": [
        4.3312576825105253e-05,
        0.0,
        99.99999999999062,
        0.0,
        -75.02658930394647,
        -66.11362111861587,
        3.249594913157239e-05,
        0.0,
        66.11362111860967,
        -75.0265893039535,
        -2.8635512938635088e-05,
        0.0,
        -1198.563232421875,
        -232.62286376953125,
        -893.626220703125,
        1.0
      ],
      "name": "Sun.005"
    },
    {
      "children": [
        11
      ],
      "matrix": [
        1.0,
        0.0,
        0.0,
        0.0,
        0.0,
        2.220446049250313e-16,
        1.0,
        0.0,
        0.0,
        -1.0,
        2.220446049250313e-16,
        0.0,
        0.0,
        0.0,
        0.0,
        1.0
      ],
      "name": "Object_10"
    },
    {
      "name": "Object_11"
    },
    {
      "children": [
        13
      ],
      "matrix": [
        4.331257681400302e-05,
        -1.1102230246251565e-14,
        99.99999999999062,
        0.0,
        -81.06221439915414,
        58.5569585677427,
        3.511013388912687e-05,
        0.0,
        -58.556958567737205,
        -81.06221439916175,
        2.5362527655836686e-05,
        0.0,
        -1198.563232421875,
        1197.58740234375,
        -893.626220703125,
        1.0
      ],
      "name": "Sun.004"
    },
    {
      "children": [
        14
      ],
      "matrix": [
        1.0,
        0.0,
        0.0,
        0.0,
        0.0,
        2.220446049250313e-16,
        1.0,
        0.0,
        0.0,
        -1.0,
        2.220446049250313e-16,
        0.0,
        0.0,
        0.0,
        0.0,
        1.0
      ],
      "name": "Object_13"
    },
    {
      "name": "Object_14"
    },
    {
      "children": [
        16
      ],
      "matrix": [
        -99.99999999999241,
        1.5221497820160646e-12,
        3.89414377755301e-05,
        0.0,
        -3.156679224755182e-05,
        58.55695373605809,
        -81.06221788942216,
        0.0,
        -2.2802920936261386e-05,
        -81.06221788942831,
        -58.55695373605365,
        0.0,
        2.659178487216668e-13,
        1197.5875244140625,
        -893.626220703125,
        1.0
      ],
      "name": "Sun.003"
    },
    {
      "children": [
        17
      ],
      "matrix": [
        1.0,
        0.0,
        0.0,
        0.0,
        0.0,
        2.220446049250313e-16,
        1.0,
        0.0,
        0.0,
        -1.0,
        2.220446049250313e-16,
        0.0,
        0.0,
        0.0,
        0.0,
        1.0
      ],
      "name": "Object_16"
    },
    {
      "name": "Object_17"
    },
    {
      "children": [
        19
      ],
      "matrix": [
        -99.99999999999434,
        -8.742277980456027e-06,
        3.2584134146417795e-05,
        0.0,
        -1.8666930419865397e-05,
        -66.11361455958453,
        -75.02659508378578,
        0.0,
        2.810158235863633e-05,
        -75.02659508378761,
        66.11361455957909,
        0.0,
        2.659178487216668e-13,
        -232.62290954589844,
        -893.626220703125,
        1.0
      ],
      "name": "Sun.002"
    },
    {
      "children": [
        20
      ],
      "matrix": [
        1.0,
        0.0,
        0.0,
        0.0,
        0.0,
        2.220446049250313e-16,
        1.0,
        0.0,
        0.0,
        -1.0,
        2.220446049250313e-16,
        0.0,
        0.0,
        0.0,
        0.0,
        1.0
      ],
      "name": "Object_19"
    },
    {
      "name": "Object_20"
    },
    {
      "children": [
        22
      ],
      "matrix": [
        100.0,
        0.0,
        0.0,
        0.0,
        0.0,
        -66.11362111861587,
        75.0265893039535,
        0.0,
        0.0,
        -75.0265893039535,
        -66.11362111861587,
        0.0,
        2.659178487216668e-13,
        -232.62290954589844,
        990.312744140625,
        1.0
      ],
      "name": "Sun.001"
    },
    {
      "children": [
        23
      ],
      "matrix": [
        1.0,
        0.0,
        0.0,
        0.0,
        0.0,
        2.220446049250313e-16,
        1.0,
        0.0,
        0.0,
        -1.0,
        2.220446049250313e-16,
        0.0,
        0.0,
        0.0,
        0.0,
        1.0
      ],
      "name": "Object_22"
    },
    {
      "name": "Object_23"
    },
    {
      "children": [
        25
      ],
      "matrix": [
        100.0,
        0.0,
        0.0,
        0.0,
        0.0,
        58.556968231111284,
        81.06220741862774,
        0.0,
        0.0,
        -81.06220741862774,
        58.556968231111284,
        0.0,
        2.659178487216668e-13,
        1197.5875244140625,
        990.312744140625,
        1.0
      ],
      "name": "Sun"
    },
    {
      "children": [
        26
      ],
      "matrix": [
        1.0,
        0.0,
        0.0,
        0.0,
        0.0,
        2.220446049250313e-16,
        1.0,
        0.0,
        0.0,
        -1.0,
        2.220446049250313e-16,
        0.0,
        0.0,
        0.0,
        0.0,
        1.0
      ],
      "name": "Object_25"
    },
    {
      "name": "Object_26"
    },
    {
      "children": [
        28,
        29,
        30,
        31
      ],
      "matrix": [
        -20.04592163951494,
        -7.3102597871261334,
        -19.573087329541213,
        0.0,
        -20.84501573766638,
        8.847472003097092,
        18.04417603127454,
        0.0,
        1.4251392588996015,
        26.583208449219168,
        -11.388003634562088,
        0.0,
        -209.10952758789063,
        685.8199462890625,
        -344.8816833496094,
        1.0
      ],
      "name": "Hojas.017"
    },
    {
      "mesh": 0,
      "name": "Hojas.017_Material.002_0"
    },
    {
      "mesh": 1,
      "name": "Hojas.017_Material.002_0"
    },
    {
      "mesh": 2,
      "name": "Hojas.017_Material.002_0"
    },
    {
      "mesh": 3,
      "name": "Hojas.017_Material.002_0"
    },
    {
      "children": [
        33
      ],
      "matrix": [
        100.0,
        0.0,
        0.0,
        0.0,
        0.0,
        -1.629206793918314e-05,
        -99.99999999999868,
        0.0,
        0.0,
        99.99999999999868,
        -1.629206793918314e-05,
        0.0,
        0.0,
        0.0,
        0.0,
        1.0
      ],
      "name": "tree"
    },
    {
      "mesh": 4,
      "name": "tree_Material.003_0"
    },
    {
      "children": [
        35
      ],
      "matrix": [
        1.9470718870540082e-05,
        0.0,
        -99.99999999999811,
        0.0,
        2.512148102658649e-13,
        100.0,
        4.8913329480407724e-20,
        0.0,
        99.99999999999811,
        -2.5121481026586963e-13,
        1.9470718870540082e-05,
        0.0,
        0.053691864013671875,
        595.2905883789063,
        2364.1845703125,
        1.0
      ],
      "name": "Camera"
    },
    {
      "name": "Object_35"
    }
  ],
  "samplers": [
    {
      "magFilter": 9729,
      "minFilter": 9987,
      "wrapS": 10497,
      "wrapT": 10497
    }
  ],
  "scene": 0,
  "scenes": [
    {
      "name": "Sketchfab_Scene",
      "nodes": [
        0
      ]
    }
  ],
  "textures": [
    {
      "sampler": 0,
      "source": 0
    },
    {
      "sampler": 0,
      "source": 1
    },
    {
      "sampler": 0,
      "source": 2
    },
    {
      "sampler": 0,
      "source": 3
    }
  ]
}
