{
  "accessors": [
    {
      "bufferView": 2,
      "componentType": 5126,
      "count": 316,
      "max": [
        4.575321197509766,
        4.575315952301025,
        11.672149658203125
      ],
      "min": [
        -5.836907863616943,
        -4.575323104858398,
        -8.440448760986328
      ],
      "type": "VEC3"
    },
    {
      "bufferView": 2,
      "byteOffset": 3792,
      "componentType": 5126,
      "count": 316,
      "max": [
        1.0,
        1.0,
        1.0
      ],
      "min": [
        -1.0,
        -1.0,
        -1.0
      ],
      "type": "VEC3"
    },
    {
      "bufferView": 3,
      "componentType": 5126,
      "count": 316,
      "max": [
        5.1841739150404464e-06,
        1.0,
        1.0,
        1.0
      ],
      "min": [
        -1.0,
        -1.0,
        -1.0,
        -1.0
      ],
      "type": "VEC4"
    },
    {
      "bufferView": 1,
      "componentType": 5126,
      "count": 316,
      "max": [
        0.9987822771072388,
        0.9994884729385376
      ],
      "min": [
        0.0005114669911563396,
        0.000511497026309371
      ],
      "type": "VEC2"
    },
    {
      "bufferView": 0,
      "componentType": 5125,
      "count": 636,
      "type": "SCALAR"
    },
    {
      "bufferView": 2,
      "byteOffset": 7584,
      "componentType": 5126,
      "count": 776,
      "max": [
        0.7018901109695435,
        1.0869630575180054,
        14.063969612121582
      ],
      "min": [
        -1.56796395778656,
        -1.0789510011672974,
        -22.230709075927734
      ],
      "type": "VEC3"
    },
    {
      "bufferView": 2,
      "byteOffset": 16896,
      "componentType": 5126,
      "count": 776,
      "max": [
        1.0,
        0.9999127388000488,
        0.845409095287323
      ],
      "min": [
        -1.0,
        -0.9999127388000488,
        -0.858430027961731
      ],
      "type": "VEC3"
    },
    {
      "bufferView": 3,
      "byteOffset": 5056,
      "componentType": 5126,
      "count": 776,
      "max": [
        0.7644856572151184,
        1.0,
        1.0,
        1.0
      ],
      "min": [
        -0.9999215602874756,
        -1.0,
        -1.0,
        -1.0
      ],
      "type": "VEC4"
    },
    {
      "bufferView": 3,
      "byteOffset": 17472,
      "componentType": 5126,
      "count": 776,
      "max": [
        0.4470588266849518,
        0.43921568989753723,
        0.43921568989753723,
        1.0
      ],
      "min": [
        0.24705882370471954,
        0.24313725531101227,
        0.24313725531101227,
        1.0
      ],
      "type": "VEC4"
    },
    {
      "bufferView": 1,
      "byteOffset": 2528,
      "componentType": 5126,
      "count": 776,
      "max": [
        0.9996386170387268,
        0.9786862134933472
      ],
      "min": [
        0.0003613980079535395,
        0.0003613900044001639
      ],
      "type": "VEC2"
    },
    {
      "bufferView": 0,
      "byteOffset": 2544,
      "componentType": 5125,
      "count": 3144,
      "type": "SCALAR"
    },
    {
      "bufferView": 2,
      "byteOffset": 26208,
      "componentType": 5126,
      "count": 774,
      "max": [
        3.597935914993286,
        1.0841360092163086,
        20.85388946533203
      ],
      "min": [
        -3.826040029525757,
        -1.0864859819412231,
        -21.606430053710938
      ],
      "type": "VEC3"
    },
    {
      "bufferView": 2,
      "byteOffset": 35496,
      "componentType": 5126,
      "count": 774,
      "max": [
        0.9999942779541016,
        0.9999982714653015,
        1.0
      ],
      "min": [
        -0.999998927116394,
        -0.9999983906745911,
        -1.0
      ],
      "type": "VEC3"
    },
    {
      "bufferView": 3,
      "byteOffset": 29888,
      "componentType": 5126,
      "count": 774,
      "max": [
        1.0,
        0.999886691570282,
        1.0,
        1.0
      ],
      "min": [
        -0.6846045255661011,
        -0.839778482913971,
        -1.0,
        -1.0
      ],
      "type": "VEC4"
    },
    {
      "bufferView": 3,
      "byteOffset": 42272,
      "componentType": 5126,
      "count": 774,
      "max": [
        0.7882353067398071,
        0.6235294342041016,
        0.43921568989753723,
        1.0
      ],
      "min": [
        0.4470588266849518,
        0.43921568989753723,
        0.42352941632270813,
        1.0
      ],
      "type": "VEC4"
    },
    {
      "bufferView": 1,
      "byteOffset": 8736,
      "componentType": 5126,
      "count": 774,
      "max": [
        0.9928880929946899,
        0.9996556043624878
      ],
      "min": [
        0.0003443959867581725,
        0.0003443959867581725
      ],
      "type": "VEC2"
    },
    {
      "bufferView": 0,
      "byteOffset": 15120,
      "componentType": 5125,
      "count": 2880,
      "type": "SCALAR"
    }
  ],
  "asset": {
    "extras": {
      "author": "Elbolillo (https://sketchfab.com/Elbolilloduro)",
      "license": "CC-BY-4.0 (http://creativecommons.org/licenses/by/4.0/)",
      "source": "https://sketchfab.com/3d-models/sillas-c9e85c037309413299b30dd666ab27c7",
      "title": "Sillas"
    },
    "generator": "Sketchfab-12.66.0",
    "version": "2.0"
  },
  "bufferViews": [
    {
      "buffer": 0,
      "byteLength": 26640,
      "name": "floatBufferViews",
      "target": 34963
    },
    {
      "buffer": 0,
      "byteLength": 14928,
      "byteOffset": 26640,
      "byteStride": 8,
      "name": "floatBufferViews",
      "target": 34962
    },
    {
      "buffer": 0,
      "byteLength": 44784,
      "byteOffset": 41568,
      "byteStride": 12,
      "name": "floatBufferViews",
      "target": 34962
    },
    {
      "buffer": 0,
      "byteLength": 54656,
      "byteOffset": 86352,
      "byteStride": 16,
      "name": "floatBufferViews",
      "target": 34962
    }
  ],
  "buffers": [
    {
      "byteLength": 141008,
      "uri": "scene.bin"
    }
  ],
  "images": [
    {
      "uri": "textures/Material.017_baseColor.png"
    },
    {
      "uri": "textures/Material.017_metallicRoughness.png"
    },
    {
      "uri": "textures/Material.017_normal.png"
    },
    {
      "uri": "textures/Material.016_baseColor.png"
    },
    {
      "uri": "textures/Material.016_metallicRoughness.png"
    },
    {
      "uri": "textures/Material.016_normal.png"
    },
    {
      "uri": "textures/Material.015_baseColor.png"
    },
    {
      "uri": "textures/Material.015_metallicRoughness.png"
    },
    {
      "uri": "textures/Material.015_normal.png"
    }
  ],
  "materials": [
    {
      "doubleSided": true,
      "name": "Material.017",
      "normalTexture": {
        "index": 2
      },
      "occlusionTexture": {
        "index": 1
      },
      "pbrMetallicRoughness": {
        "baseColorTexture": {
          "index": 0
        },
        "metallicRoughnessTexture": {
          "index": 1
        }
      }
    },
    {
      "doubleSided": true,
      "name": "Material.016",
      "normalTexture": {
        "index": 5
      },
      "occlusionTexture": {
        "index": 4
      },
      "pbrMetallicRoughness": {
        "baseColorTexture": {
          "index": 3
        },
        "metallicRoughnessTexture": {
          "index": 4
        }
      }
    },
    {
      "doubleSided": true,
      "name": "Material.015",
      "normalTexture": {
        "index": 8
      },
      "occlusionTexture": {
        "index": 7
      },
      "pbrMetallicRoughness": {
        "baseColorTexture": {
          "index": 6
        },
        "metallicFactor": 0.0,
        "metallicRoughnessTexture": {
          "index": 7
        }
      }
    }
  ],
  "meshes": [
    {
      "name": "Material_015-material",
      "primitives": [
        {
          "attributes": {
            "NORMAL": 1,
            "POSITION": 0,
            "TANGENT": 2,
            "TEXCOORD_0": 3
          },
          "indices": 4,
          "material": 2,
          "mode": 4
        }
      ]
    },
    {
      "name": "Material_016-material",
      "primitives": [
        {
          "attributes": {
            "COLOR_0": 8,
            "NORMAL": 6,
            "POSITION": 5,
            "TANGENT": 7,
            "TEXCOORD_0": 9
          },
          "indices": 10,
          "material": 1,
          "mode": 4
        }
      ]
    },
    {
      "name": "Material_017-material",
      "primitives": [
        {
          "attributes": {
            "COLOR_0": 14,
            "NORMAL": 12,
            "POSITION": 11,
            "TANGENT": 13,
            "TEXCOORD_0": 15
          },
          "indices": 16,
          "material": 0,
          "mode": 4
        }
      ]
    }
  ],
  "nodes": [
    {
      "children": [
        1
      ],
      "matrix": [
        1.0,
        0.0,
        0.0,
        0.0,
        0.0,
        2.220446049250313e-16,
        -1.0,
        0.0,
        0.0,
        1.0,
        2.220446049250313e-16,
        0.0,
        0.0,
        0.0,
        0.0,
        1.0
      ],
      "name": "Sketchfab_model"
    },
    {
      "children": [
        2,
        4,
        6
      ],
      "name": "Collada visual scene group"
    },
    {
      "children": [
        3
      ],
      "matrix": [
        0.08518573,
        0.0,
        0.0,
        0.0,
        0.0,
        0.08518573,
        0.0,
        0.0,
        0.0,
        0.0,
        0.08518573,
        0.0,
        5.016124,
        14.66553,
        0.06437576,
        1.0
      ],
      "name": "Cube.009"
    },
    {
      "mesh": 0,
      "name": "Material_015-material"
    },
    {
      "children": [
        5
      ],
      "matrix": [
        -0.402861,
        -1.31269e-07,
        0.0,
        0.0,
        1.37997e-07,
        -0.4235086,
        0.0,
        0.0,
        0.0,
        0.0,
        0.04306125,
        0.0,
        4.727309,
        13.33043,
        0.2967637,
        1.0
      ],
      "name": "Cube.002"
    },
    {
      "mesh": 1,
      "name": "Material_016-material"
    },
    {
      "children": [
        7
      ],
      "matrix": [
        0.0252195,
        -1.97046e-10,
        -0.2161082,
        0.0,
        6.87526e-09,
        0.4414625,
        3.99809e-10,
        0.0,
        0.02368546,
        -3.71377e-10,
        0.002764057,
        0.0,
        4.798031,
        11.86788,
        0.08410433,
        1.0
      ],
      "name": "Cube.004"
    },
    {
      "mesh": 2,
      "name": "Material_017-material"
    }
  ],
  "samplers": [
    {
      "magFilter": 9729,
      "minFilter": 9987,
      "wrapS": 10497,
      "wrapT": 10497
    }
  ],
  "scene": 0,
  "scenes": [
    {
      "name": "Sketchfab_Scene",
      "nodes": [
        0
      ]
    }
  ],
  "textures": [
    {
      "sampler": 0,
      "source": 0
    },
    {
      "sampler": 0,
      "source": 1
    },
    {
      "sampler": 0,
      "source": 2
    },
    {
      "sampler": 0,
      "source": 3
    },
    {
      "sampler": 0,
      "source": 4
    },
    {
      "sampler": 0,
      "source": 5
    },
    {
      "sampler": 0,
      "source": 6
    },
    {
      "sampler": 0,
      "source": 7
    },
    {
      "sampler": 0,
      "source": 8
    }
  ]
}
